<svg xmlns="http://www.w3.org/2000/svg" width="1588.6554" height="1589.33394" viewBox="0 0 1588.6554 1589.33394">
  <defs>
    <style>
      .a {
        fill: #e18e3c;
      }
    </style>
  </defs>
  <g>
    <path class="a" d="M1389.04014,557.53156c-92.72584,170.85549,4.72209,273.02538,58.38269,526.73294a336.97456,336.97456,0,0,1-13.625,214.30327,792.72154,792.72154,0,0,0,130.43031-244.36218,535.56506,535.56506,0,0,0-63.14448-96.5803A525.01576,525.01576,0,0,1,1389.04014,557.53156Z" transform="translate(-13.66775 -13.65402)"/>
    <path class="a" d="M1154.22064,755.86114s187.5978,267.874-36.48915,458.90626L879.9074,1201.03019,621.90688,1402.36527A532.743,532.743,0,0,0,507.7176,1147.80039l151.10865,36.48889s-9.87345-234.39-194.46609-217.64792l-36.9186,97.44793A443.02183,443.02183,0,0,1,202.92535,846.01248a688.14642,688.14642,0,0,0,244.2633-110.75575L472.5165,616.34446S1090.258,375.08645,1271.41611,249.735a232.24338,232.24338,0,0,1-20.17636,236.10672l100.45246-90.57894,117.27334-28.72792C1326.381,153.74152,1083.7216,13.654,808.33479,13.654c-438.88247,0-794.667,355.7845-794.667,794.667s355.78457,794.667,794.667,794.667c240.958,0,456.85925-107.25152,602.59316-276.612a831.93893,831.93893,0,0,0-186.305-98.30086S1375.30242,960.20075,1154.22064,755.86114Z" transform="translate(-13.66775 -13.65402)"/>
    <path class="a" d="M1559.89569,703.4893q22.87219,35.12328,42.42746,71.95295a790.34814,790.34814,0,0,0-124.93278-396.083A455.46737,455.46737,0,0,0,1559.89569,703.4893Z" transform="translate(-13.66775 -13.65402)"/>
  </g>
</svg>
