<svg xmlns="http://www.w3.org/2000/svg" width="897.72491" height="897.72491" viewBox="0 0 897.72491 897.72491"><defs><style>.a{fill:#e18e3c;}</style></defs><path class="a" d="M706.6441,399.09851S839.4444,588.8321,680.54828,724.05292L512.1358,714.56965l-182.704,142.35A376.78158,376.78158,0,0,0,248.79,676.603l106.77081,26.09583S348.697,536.60724,217.98566,548.478l-26.2616,68.87042A314.04522,314.04522,0,0,1,32.7616,463.12775a491.50916,491.50916,0,0,0,173.08789-78.387l17.77313-84.223S539.482,177.23591,713.1015,85.60907A446.81885,446.81885,0,0,0,450.73022.97388C202.83032.97388,1.86774,201.93647,1.86774,449.83631S202.83032,898.6988,450.73022,898.6988c134.233,0,254.699-58.92713,336.95429-152.31873q-15.45575-6.8421-31.30255-12.81049S863.21918,543.83588,706.6441,399.09851Z" transform="translate(-1.86774 -0.97388)"/><path class="a" d="M869.99347,289.21485q-2.64871-6.90959-5.5141-13.70978c-40.73187,89.123-7.52155,154.3136,25.98523,264.83435a450.87639,450.87639,0,0,0,9.12805-90.50311q0-14.37507-.89386-28.53028v31.39624A371.78971,371.78971,0,0,1,869.99347,289.21485Z" transform="translate(-1.86774 -0.97388)"/><path class="a" d="M808.17017,178.3042q-5.31144-6.98108-10.88263-13.74908a164.73365,164.73365,0,0,1-22.07123,43.41681Z" transform="translate(-1.86774 -0.97388)"/></svg>